<svg width="55" height="55" viewBox="0 0 55 55" fill="none" xmlns="http://www.w3.org/2000/svg">
<circle cx="27.5" cy="27.5" r="27.5" fill="white"/>
<path d="M28 7C16.955 7 8 16.0952 8 27.3132C8 36.8316 14.4533 44.796 23.1533 47C23.06 46.7258 23 46.4075 23 46.0131V42.5413C22.1883 42.5413 20.8283 42.5413 20.4867 42.5413C19.1183 42.5413 17.9017 41.9437 17.3117 40.8333C16.6567 39.5992 16.5433 37.7118 14.92 36.5573C14.4383 36.1731 14.805 35.7347 15.36 35.7939C16.385 36.0884 17.235 36.8028 18.035 37.8625C18.8317 38.9238 19.2067 39.1642 20.695 39.1642C21.4167 39.1642 22.4967 39.1219 23.5133 38.9594C24.06 37.5493 25.005 36.2509 26.16 35.6382C19.5 34.9424 16.3217 31.5772 16.3217 27.0085C16.3217 25.0415 17.1467 23.1388 18.5483 21.5358C18.0883 19.9446 17.51 16.6995 18.725 15.4638C21.7217 15.4638 23.5333 17.4376 23.9683 17.9708C25.4617 17.4511 27.1017 17.1566 28.825 17.1566C30.5517 17.1566 32.1983 17.4511 33.695 17.9742C34.125 17.4444 35.9383 15.4638 38.9417 15.4638C40.1617 16.7012 39.5767 19.9598 39.1117 21.5476C40.505 23.1473 41.325 25.0449 41.325 27.0085C41.325 31.5738 38.1517 34.9374 31.5017 35.6365C33.3317 36.6064 34.6667 39.3318 34.6667 41.3851V46.0131C34.6667 46.1892 34.6283 46.3161 34.6083 46.4668C42.4017 43.6923 48 36.1765 48 27.3132C48 16.0952 39.045 7 28 7Z" fill="black"/>
</svg>
