<svg width="55" height="55" viewBox="0 0 55 55" fill="none" xmlns="http://www.w3.org/2000/svg">
<circle cx="27.5" cy="27.5" r="27.5" fill="white"/>
<path d="M42.7273 9H13.2727C11.4645 9 10 10.4645 10 12.2727V41.7273C10 43.5355 11.4645 45 13.2727 45H42.7273C44.5355 45 46 43.5355 46 41.7273V12.2727C46 10.4645 44.5355 9 42.7273 9ZM21.3793 38.4545H16.552V22.9222H21.3793V38.4545ZM18.9165 20.7016C17.3604 20.7016 16.102 19.44 16.102 17.8871C16.102 16.3342 17.362 15.0742 18.9165 15.0742C20.4678 15.0742 21.7295 16.3358 21.7295 17.8871C21.7295 19.44 20.4678 20.7016 18.9165 20.7016ZM39.4611 38.4545H34.6371V30.9011C34.6371 29.0995 34.6044 26.7824 32.1285 26.7824C29.6167 26.7824 29.2305 28.7444 29.2305 30.7702V38.4545H24.4065V22.9222H29.0375V25.0445H29.1029C29.7476 23.8238 31.3218 22.536 33.67 22.536C38.5578 22.536 39.4611 25.7531 39.4611 29.9356V38.4545Z" fill="#004DB8"/>
</svg>
