<svg width="30" height="30" viewBox="0 0 30 30" fill="none" xmlns="http://www.w3.org/2000/svg">
<path d="M28.4917 15.0043C28.094 15.0043 27.7126 15.1623 27.4314 15.4436C27.1502 15.7248 26.9922 16.1062 26.9922 16.5039V25.5013C26.9922 25.899 26.8342 26.2804 26.553 26.5617C26.2717 26.8429 25.8903 27.0009 25.4926 27.0009H4.4987C4.10099 27.0009 3.71957 26.8429 3.43834 26.5617C3.15712 26.2804 2.99913 25.899 2.99913 25.5013V4.50739C2.99913 4.10968 3.15712 3.72826 3.43834 3.44704C3.71957 3.16582 4.10099 3.00783 4.4987 3.00783H13.4961C13.8938 3.00783 14.2752 2.84984 14.5564 2.56861C14.8377 2.28739 14.9957 1.90597 14.9957 1.50826C14.9957 1.11055 14.8377 0.72913 14.5564 0.447907C14.2752 0.166684 13.8938 0.00869499 13.4961 0.00869499H4.4987C3.30557 0.00869499 2.16131 0.482663 1.31764 1.32633C0.473968 2.17 0 3.31426 0 4.50739V25.5013C0 26.6944 0.473968 27.8387 1.31764 28.6824C2.16131 29.526 3.30557 30 4.4987 30H25.4926C26.6857 30 27.83 29.526 28.6737 28.6824C29.5173 27.8387 29.9913 26.6944 29.9913 25.5013V16.5039C29.9913 16.1062 29.8333 15.7248 29.5521 15.4436C29.2709 15.1623 28.8894 15.0043 28.4917 15.0043ZM5.99826 16.144V22.5022C5.99826 22.8999 6.15625 23.2813 6.43747 23.5625C6.7187 23.8437 7.10012 24.0017 7.49783 24.0017H13.856C14.0533 24.0029 14.249 23.9651 14.4317 23.8904C14.6144 23.8158 14.7806 23.7058 14.9207 23.5669L25.2977 13.1749L29.5564 9.00609C29.697 8.86668 29.8085 8.70083 29.8847 8.51809C29.9608 8.33536 30 8.13936 30 7.9414C30 7.74343 29.9608 7.54743 29.8847 7.3647C29.8085 7.18196 29.697 7.01611 29.5564 6.8767L23.1983 0.443569C23.0589 0.303017 22.893 0.191458 22.7103 0.115327C22.5275 0.039196 22.3315 0 22.1336 0C21.9356 0 21.7396 0.039196 21.5569 0.115327C21.3741 0.191458 21.2083 0.303017 21.0689 0.443569L16.8401 4.68734L6.43314 15.0793C6.29415 15.2194 6.1842 15.3856 6.10957 15.5683C6.03495 15.751 5.99712 15.9467 5.99826 16.144ZM22.1336 3.62265L26.3774 7.86642L24.248 9.9958L20.0042 5.75203L22.1336 3.62265ZM8.99739 16.7588L17.8898 7.86642L22.1336 12.1102L13.2412 21.0026H8.99739V16.7588Z" fill="black"/>
</svg>
